<svg width="41" height="41" viewBox="0 0 41 41" fill="none" xmlns="http://www.w3.org/2000/svg">
<circle cx="20.5" cy="20.5" r="20.5" fill="white"/>
<path d="M32.6125 15.6625L31.4875 16.7875C33.5125 18.8125 33.5125 21.9625 31.4875 24.1L32.6125 25.225C35.425 22.6375 35.425 18.3625 32.6125 15.6625ZM30.25 18.025L29.125 19.15C29.6875 19.9375 29.6875 20.95 29.125 21.7375L30.25 22.8625C31.6 21.5125 31.6 19.4875 30.25 18.025ZM25.75 8.125H14.5C13.2625 8.125 12.25 9.1375 12.25 10.375V30.625C12.25 31.8625 13.2625 32.875 14.5 32.875H25.75C26.9875 32.875 28 31.8625 28 30.625V10.375C28 9.1375 26.9875 8.125 25.75 8.125ZM25.75 29.5H14.5V11.5H25.75V29.5Z" fill="#21512C"/>
</svg>
