<svg width="41" height="41" viewBox="0 0 41 41" fill="none" xmlns="http://www.w3.org/2000/svg">
<circle cx="20.5" cy="20.5" r="20.5" fill="white"/>
<path d="M29.8182 15.6356C30.3968 15.6356 30.9518 15.8654 31.361 16.2746C31.7701 16.6838 32 17.2388 32 17.8175V22.1813C32 22.76 31.7701 23.315 31.361 23.7242C30.9518 24.1334 30.3968 24.3633 29.8182 24.3633H28.6596C28.3937 26.4724 27.3672 28.412 25.7728 29.8181C24.1784 31.2241 22.1258 32 20 32V29.8181C21.736 29.8181 23.4008 29.1284 24.6283 27.9009C25.8558 26.6733 26.5455 25.0083 26.5455 23.2723V16.7265C26.5455 14.9905 25.8558 13.3255 24.6283 12.098C23.4008 10.8704 21.736 10.1808 20 10.1808C18.264 10.1808 16.5992 10.8704 15.3717 12.098C14.1442 13.3255 13.4545 14.9905 13.4545 16.7265V24.3633H10.1818C9.60316 24.3633 9.04821 24.1334 8.63904 23.7242C8.22987 23.315 8 22.76 8 22.1813V17.8175C8 17.2388 8.22987 16.6838 8.63904 16.2746C9.04821 15.8654 9.60316 15.6356 10.1818 15.6356H11.3404C11.6066 13.5266 12.6332 11.5873 14.2275 10.1815C15.8219 8.77568 17.8744 8 20 8C22.1256 8 24.1781 8.77568 25.7725 10.1815C27.3668 11.5873 28.3934 13.5266 28.6596 15.6356H29.8182ZM15.3745 24.1287L16.5309 22.2784C17.5706 22.9298 18.7731 23.2743 20 23.2723C21.2269 23.2743 22.4294 22.9298 23.4691 22.2784L24.6255 24.1287C23.2392 24.9973 21.6359 25.4567 20 25.4542C18.3641 25.4567 16.7608 24.9973 15.3745 24.1287Z" fill="#21512C"/>
</svg>
