<svg width="41" height="41" viewBox="0 0 41 41" fill="none" xmlns="http://www.w3.org/2000/svg">
<circle cx="20.5" cy="20.5" r="20.5" fill="white"/>
<path d="M8 14.1667C8 13.3268 8.32924 12.5214 8.91529 11.9275C9.50134 11.3336 10.2962 11 11.125 11H29.875C30.7038 11 31.4987 11.3336 32.0847 11.9275C32.6708 12.5214 33 13.3268 33 14.1667V15.75H8V14.1667ZM8 18.9167V26.8333C8 27.6732 8.32924 28.4786 8.91529 29.0725C9.50134 29.6664 10.2962 30 11.125 30H29.875C30.7038 30 31.4987 29.6664 32.0847 29.0725C32.6708 28.4786 33 27.6732 33 26.8333V18.9167H8ZM12.6875 22.0833H14.25C14.6644 22.0833 15.0618 22.2501 15.3549 22.5471C15.6479 22.844 15.8125 23.2467 15.8125 23.6667V25.25C15.8125 25.6699 15.6479 26.0727 15.3549 26.3696C15.0618 26.6665 14.6644 26.8333 14.25 26.8333H12.6875C12.2731 26.8333 11.8757 26.6665 11.5826 26.3696C11.2896 26.0727 11.125 25.6699 11.125 25.25V23.6667C11.125 23.2467 11.2896 22.844 11.5826 22.5471C11.8757 22.2501 12.2731 22.0833 12.6875 22.0833Z" fill="#605048"/>
</svg>
