<<svg width="27" height="27" viewBox="0 0 27 27" fill="none" xmlns="http://www.w3.org/2000/svg">
<path d="M13.5 2.25C9.14625 2.25 5.625 5.77125 5.625 10.125C5.625 12.0825 6.1875 13.9163 7.21125 15.57C8.28 17.3025 9.68625 18.7875 10.7662 20.52C11.295 21.3638 11.6775 22.1513 12.0825 23.0625C12.375 23.6813 12.6112 24.75 13.5 24.75C14.3888 24.75 14.625 23.6813 14.9062 23.0625C15.3225 22.1513 15.6938 21.3638 16.2225 20.52C17.3025 18.7988 18.7087 17.3138 19.7775 15.57C20.8125 13.9163 21.375 12.0825 21.375 10.125C21.375 5.77125 17.8537 2.25 13.5 2.25ZM13.5 13.2188C11.9475 13.2188 10.6875 11.9588 10.6875 10.4063C10.6875 8.85375 11.9475 7.59375 13.5 7.59375C15.0525 7.59375 16.3125 8.85375 16.3125 10.4063C16.3125 11.9588 15.0525 13.2188 13.5 13.2188Z" fill="#595957"/>
</svg>
