<svg width="27" height="27" viewBox="0 0 27 27" fill="none" xmlns="http://www.w3.org/2000/svg">
<path d="M22.6125 8.6625L21.4875 9.7875C23.5125 11.8125 23.5125 14.9625 21.4875 17.1L22.6125 18.225C25.425 15.6375 25.425 11.3625 22.6125 8.6625V8.6625ZM20.25 11.025L19.125 12.15C19.6875 12.9375 19.6875 13.95 19.125 14.7375L20.25 15.8625C21.6 14.5125 21.6 12.4875 20.25 11.025ZM15.75 1.125H4.5C3.2625 1.125 2.25 2.1375 2.25 3.375V23.625C2.25 24.8625 3.2625 25.875 4.5 25.875H15.75C16.9875 25.875 18 24.8625 18 23.625V3.375C18 2.1375 16.9875 1.125 15.75 1.125ZM15.75 22.5H4.5V4.5H15.75V22.5Z" fill="#21512C"/>
</svg>
