<svg width="41" height="41" viewBox="0 0 41 41" fill="none" xmlns="http://www.w3.org/2000/svg">
<circle cx="20.5" cy="20.5" r="20.5" fill="white"/>
<g clip-path="url(#clip0_0_1)">
<path d="M21 6.88867C15.21 6.88867 10.5 11.4242 10.5 16.9998C10.5 24.5831 21 35.7776 21 35.7776C21 35.7776 31.5 24.5831 31.5 16.9998C31.5 11.4242 26.79 6.88867 21 6.88867ZM21 9.77756C22.65 9.77756 24 11.0776 24 12.6665C24 14.2698 22.65 15.5553 21 15.5553C19.35 15.5553 18 14.2698 18 12.6665C18 11.0776 19.35 9.77756 21 9.77756ZM21 24.222C18.495 24.222 16.29 22.9942 15 21.1165C15.03 19.2098 19.005 18.1553 21 18.1553C22.995 18.1553 26.97 19.2098 27 21.1165C25.71 22.9942 23.505 24.222 21 24.222Z" fill="#605048"/>
</g>
<defs>
<clipPath id="clip0_0_1">
<rect width="36" height="34.6667" fill="white" transform="translate(3 4)"/>
</clipPath>
</defs>
</svg>
