<svg width="35" height="35" viewBox="0 0 35 35" fill="none" xmlns="http://www.w3.org/2000/svg">
<g clip-path="url(#clip0_185_1514)">
<path d="M18.9616 27.2499C19.8174 26.394 19.8174 25.0064 18.9616 24.1505C18.1057 23.2946 16.7181 23.2946 15.8622 24.1505C15.0063 25.0064 15.0063 26.394 15.8622 27.2499C16.7181 28.1058 18.1057 28.1058 18.9616 27.2499Z" fill="#1B1D22"/>
<path d="M6.35083 17.7388L8.36259 19.7505C13.36 14.7531 21.4639 14.7531 26.4613 19.7505L28.473 17.7388C22.3667 11.6324 12.4572 11.6324 6.35083 17.7388ZM10.3743 21.7623L12.3861 23.774C15.1585 21.0017 19.6654 21.0017 22.4378 23.774L24.4495 21.7623C20.5611 17.8738 14.2628 17.8738 10.3743 21.7623Z" fill="#1B1D22"/>
</g>
<defs>
<clipPath id="clip0_185_1514">
<rect width="24.1277" height="24.1277" fill="white" transform="translate(0.351074 17.4258) rotate(-45)"/>
</clipPath>
</defs>
</svg>
